<svg data-source-pos="161:22-169:28" data-source-name="svg" aria-hidden="true" xmlns="http://www.w3.org/2000/svg" class="h-4 w-4" fill="#000000" viewBox="0 0 24 24"><path data-source-pos="168:24-168:442" data-source-name="path" d="M22 4.01c-.77.35-1.6.59-2.46.69a4.26 4.26 0 001.88-2.35 8.48 8.48 0 01-2.7 1.04A4.22 4.22 0 0015.5 2c-2.33 0-4.22 1.9-4.22 4.24 0 .33.03.65.1.96A11.98 11.98 0 013 3.1a4.25 4.25 0 001.3 5.67 4.15 4.15 0 01-1.9-.53v.05c0 2.06 1.45 3.78 3.37 4.17a4.2 4.2 0 01-1.9.07 4.24 4.24 0 003.95 2.95A8.48 8.48 0 012 19.54 11.95 11.95 0 008.29 21c7.55 0 11.68-6.32 11.68-11.8 0-.18 0-.36-.01-.53A8.45 8.45 0 0022 4.01z"></path></svg>