<?xml version="1.0" encoding="UTF-8"?>
<svg id="Layer_1" data-name="Layer 1" xmlns="http://www.w3.org/2000/svg" viewBox="0 0 2000 2000">
  <defs>
    <style>
      .cls-1 {
        fill: #1a1a1a;
      }

      .cls-1, .cls-2 {
        fill-rule: evenodd;
      }

      .cls-2 {
        fill: #c90000;
      }
    </style>
  </defs>
  <g>
    <path class="cls-1" d="M693.91,1192.41c2.02-4.61,5.19-6.63,9.8-6.63s7.78,2.02,9.51,6.63l59.06,156.45h37.75l-65.69-172.87c-6.91-18.15-20.17-25.07-40.34-25.07s-33.71,6.92-40.91,25.07l-68.28,172.87h37.45l21.45-54.44h70.66l-13.16-34h-44.1l26.8-68.02Z"/>
    <path class="cls-1" d="M891.56,1154.37c-43.22,0-60.5,23.62-60.5,55.9,0,27.08,12.1,56.18,63.96,56.18h45.24c23.91,0,30.54,11.52,30.54,24.2,0,14.12-8.36,24.2-26.8,24.2h-109.48v34h108.33c44.37,0,61.94-24.2,61.94-57.05,0-27.95-12.39-57.33-65.4-57.33h-45.52c-22.76,0-28.81-11.24-28.81-23.05,0-13.54,7.78-23.05,25.36-23.05h99.69v-34h-98.54Z"/>
    <path class="cls-1" d="M1038.45,1154.37v34h106.6c18.73,0,27.08,11.82,27.08,25.65s-7.78,27.08-27.08,27.08h-75.78c-21.32,0-30.54,8.93-30.54,30.83v76.93h34v-70.3c0-3.46,1.73-4.9,4.9-4.9h50.71l44.37,75.2h37.74l-45.24-77.79c29.68-8.36,41.2-34.29,41.2-58.49,0-31.12-18.73-58.2-62.52-58.2h-105.45Z"/>
    <path class="cls-1" d="M1243,1154.37v34h101.13c18.44,0,26.79,11.82,26.79,25.93s-7.78,26.8-27.08,26.8h-70.01c-21.32,0-30.54,8.93-30.54,30.83v76.93h34v-70.3c0-3.46,1.73-4.9,4.9-4.9h60.5c45.52,0,62.52-31.69,62.52-61.08,0-31.12-18.73-58.2-62.52-58.2h-99.69Z"/>
  </g>
  <path class="cls-1" d="M1320.54,1389.94v-2.84c1.03,0,1.81-.33,2.35-1,.54-.67,.8-1.63,.8-2.89v-7.33c0-1.26-.27-2.22-.8-2.89-.54-.67-1.31-1-2.35-1v-2.83c1.91,0,3.41,.59,4.5,1.79,1.09,1.19,1.63,2.84,1.63,4.94v7.33c0,2.1-.54,3.74-1.63,4.94-1.09,1.2-2.58,1.79-4.5,1.79h0Zm18.51-.06c-1.83,0-3.28-.54-4.34-1.63s-1.59-2.63-1.59-4.64v-8.16c0-2,.52-3.55,1.56-4.63,1.04-1.08,2.48-1.62,4.31-1.62s3.2,.53,4.21,1.58c1.01,1.05,1.56,2.56,1.63,4.53h-2.87c-.06-1.15-.33-1.99-.83-2.52-.49-.54-1.21-.8-2.14-.8-1.95,0-2.92,1.17-2.92,3.5v8.13c0,1.18,.26,2.06,.79,2.64,.53,.57,1.27,.86,2.22,.86s1.73-.28,2.26-.83c.54-.55,.8-1.4,.8-2.52v-2.52h-3.18v-2.58h6.01v5.1c-.02,1.95-.56,3.46-1.62,4.52-1.06,1.07-2.5,1.6-4.31,1.6h0Zm12.5-20.36h2.89v20.05h-2.89v-20.05h0Zm15.07,20.42c-1.79,0-3.22-.53-4.27-1.57-1.05-1.05-1.59-2.48-1.61-4.3h2.95c.02,1.01,.28,1.77,.78,2.29,.51,.52,1.22,.77,2.14,.77s1.65-.25,2.14-.75c.49-.5,.73-1.16,.73-2s-.3-1.49-.89-2.05c-.59-.56-1.49-1.2-2.69-1.91-1.05-.65-1.89-1.22-2.52-1.72-.63-.49-1.17-1.12-1.62-1.86-.45-.75-.68-1.62-.68-2.64,0-.95,.23-1.82,.68-2.59,.45-.77,1.09-1.38,1.92-1.82,.83-.44,1.8-.66,2.91-.66,1.69,0,3.04,.51,4.03,1.52,.99,1.01,1.51,2.38,1.55,4.1h-2.95c-.02-.94-.26-1.64-.72-2.12-.46-.48-1.09-.72-1.89-.72s-1.43,.21-1.89,.63c-.46,.42-.69,.99-.69,1.72,0,.55,.15,1.04,.46,1.46,.3,.42,.68,.79,1.13,1.11,.45,.31,1.08,.72,1.91,1.22,1.07,.63,1.93,1.19,2.58,1.69,.65,.5,1.2,1.13,1.66,1.91,.46,.77,.69,1.69,.69,2.76,0,1.01-.23,1.94-.69,2.78-.46,.84-1.13,1.51-2.02,2-.89,.5-1.94,.75-3.14,.75h0Zm22.06-17.67h-4.18v17.3h-2.95v-17.3h-4.15v-2.75h11.29v2.75h0Zm10.66,17.67c-1.8,0-3.22-.53-4.27-1.57-1.05-1.05-1.59-2.48-1.61-4.3h2.95c.02,1.01,.28,1.77,.79,2.29,.51,.52,1.22,.77,2.13,.77s1.65-.25,2.14-.75c.49-.5,.73-1.16,.73-2s-.3-1.49-.89-2.05c-.59-.56-1.49-1.2-2.69-1.91-1.05-.65-1.89-1.22-2.52-1.72-.63-.49-1.17-1.12-1.62-1.86-.45-.75-.67-1.62-.67-2.64,0-.95,.22-1.82,.67-2.59,.45-.77,1.09-1.38,1.92-1.82,.83-.44,1.8-.66,2.91-.66,1.7,0,3.04,.51,4.03,1.52,.99,1.01,1.51,2.38,1.55,4.1h-2.95c-.02-.94-.26-1.64-.72-2.12-.46-.48-1.09-.72-1.89-.72s-1.43,.21-1.89,.63c-.46,.42-.69,.99-.69,1.72,0,.55,.15,1.04,.46,1.46,.3,.42,.68,.79,1.13,1.11,.45,.31,1.08,.72,1.91,1.22,1.07,.63,1.93,1.19,2.58,1.69,.65,.5,1.2,1.13,1.66,1.91,.46,.77,.69,1.69,.69,2.76,0,1.01-.23,1.94-.69,2.78-.46,.84-1.13,1.51-2.02,2-.89,.5-1.93,.75-3.14,.75Zm-78.8-20.79v2.83h0c-1.03,0-1.81,.34-2.35,1-.54,.67-.8,1.63-.8,2.89v7.33c0,1.26,.27,2.22,.8,2.89,.53,.67,1.32,1,2.35,1h0v2.84h0c-1.91,0-3.41-.59-4.49-1.79-1.09-1.19-1.63-2.84-1.63-4.94v-7.33c0-2.1,.54-3.74,1.63-4.94,1.09-1.2,2.59-1.79,4.49-1.79h0Zm-34.04,20.79v-2.84c1.03,0,1.81-.33,2.35-1,.54-.67,.8-1.63,.8-2.89v-7.33c0-1.26-.27-2.22-.8-2.89-.53-.67-1.31-1-2.35-1v-2.83c1.91,0,3.41,.59,4.5,1.79,1.09,1.19,1.63,2.84,1.63,4.94v7.33c0,2.1-.54,3.74-1.63,4.94-1.09,1.2-2.58,1.79-4.5,1.79h0Zm22.69-3.12v2.75h-9.54v-20.05h2.89v17.3h6.64Zm-22.69-17.67v2.83h0c-1.03,0-1.81,.34-2.35,1-.54,.67-.8,1.63-.8,2.89v7.33c0,1.26,.27,2.22,.8,2.89,.53,.67,1.32,1,2.35,1h0v2.84h0c-1.91,0-3.41-.59-4.49-1.79-1.09-1.19-1.63-2.84-1.63-4.94v-7.33c0-2.1,.54-3.74,1.63-4.94,1.09-1.2,2.58-1.79,4.49-1.79h0Zm-51.64,16.38v-2.69h2.03l-1.26-5.39c-.28-1.33-.53-2.77-.74-4.3h-.03v-3.64h1.54l5.04,20.05h-3.01l-.95-4.04h-2.63Zm21.12-13.26h-4.18v17.3h-2.95v-17.3h-4.15v-2.75h11.29v2.75h0Zm17.36-2.75v20.05h-2.89v-8.79h-5.67v8.79h-2.89v-20.05h2.89v8.53h5.67v-8.53h2.89Zm-38.48,0v3.64h-.06c-.25,1.82-.5,3.25-.75,4.3l-1.23,5.39h2.03v2.69h-2.66l-.92,4.04h-3.04l5.04-20.05h1.58Zm-15.82,12.99v-2.76c.87-.07,1.54-.38,2-.91,.54-.62,.8-1.57,.8-2.85,0-2.31-.93-3.55-2.8-3.71v-2.76c1.77,.07,3.16,.64,4.15,1.7,1.07,1.14,1.6,2.72,1.6,4.77s-.54,3.71-1.6,4.84c-1,1.05-2.38,1.61-4.15,1.68Zm0-12.99v2.76l-.43-.02h-2.38v7.51h2.38l.43-.02v2.76h-.4s-2.41,0-2.41,0v7.05h-2.89v-20.05h5.7Zm-100.42,16.01v-2.69h2.03l-1.26-5.39c-.29-1.33-.54-2.77-.75-4.3h-.03v-3.64h1.54l5.04,20.05h-3.01l-.95-4.04h-2.63Zm16.59-4.73l-1.32,1.98v6.79h-2.86v-20.05h2.86v8.71l1.32-2.35,4.01-6.36h3.38l-5.73,8.74,6.56,11.31h-3.32l-4.9-8.77h0Zm13.7-11.28h2.89v20.05h-2.89v-20.05h0Zm10.46,0h2.89l4.61,10.22c.34,.76,.95,2.23,1.83,4.41l.09-.06c-.11-.97-.21-2.12-.28-3.44-.08-1.32-.12-2.43-.12-3.32v-7.82h2.86v20.05h-2.89l-4.47-9.82c-.82-2.04-1.46-3.67-1.92-4.87l-.09,.06c.09,.99,.18,2.15,.25,3.48,.06,1.33,.1,2.47,.1,3.42v7.73h-2.86v-20.05h0Zm24.84,20.36c-1.83,0-3.28-.54-4.34-1.63-1.06-1.09-1.59-2.63-1.59-4.64v-8.16c0-2,.52-3.55,1.56-4.63,1.04-1.08,2.48-1.62,4.31-1.62s3.2,.53,4.21,1.58c1.01,1.05,1.56,2.56,1.63,4.53h-2.86c-.06-1.15-.33-1.99-.83-2.52-.49-.54-1.21-.8-2.14-.8-1.95,0-2.93,1.17-2.93,3.5v8.13c0,1.18,.26,2.06,.79,2.64,.53,.57,1.26,.86,2.22,.86s1.73-.28,2.26-.83,.8-1.4,.8-2.52v-2.52h-3.18v-2.58h6.02v5.1c-.02,1.95-.56,3.46-1.62,4.52-1.06,1.07-2.5,1.6-4.31,1.6Zm-65.59-20.36v3.64h-.06c-.25,1.82-.5,3.25-.75,4.3l-1.23,5.39h2.04v2.69h-2.67l-.92,4.04h-3.04l5.04-20.05h1.58Zm-33.42,12.99v-2.76c.88-.07,1.54-.38,2.01-.91,.54-.62,.8-1.57,.8-2.85,0-2.31-.93-3.55-2.81-3.71v-2.76c1.77,.07,3.16,.64,4.15,1.7,1.07,1.14,1.61,2.72,1.61,4.77s-.54,3.71-1.61,4.84c-.99,1.05-2.38,1.61-4.15,1.68h0Zm21.92,4.33v2.72h-10.11v-20.05h9.82v2.72h-6.93v5.81h6.39v2.66h-6.39v6.13h7.22Zm-21.92-17.32v2.76l-.43-.02h-2.38v7.51h2.38l.43-.02v2.76h-.4s-2.41,0-2.41,0v7.05h-2.89v-20.05h5.7Zm-67.02,16.01v-2.69h2.03l-1.26-5.39c-.28-1.33-.53-2.77-.74-4.3h-.03v-3.64h1.54l5.04,20.05h-3.01l-.95-4.04h-2.63Zm12.41-16.01h2.89l4.61,10.22c.34,.76,.95,2.23,1.83,4.41l.09-.06c-.12-.97-.21-2.12-.29-3.44-.08-1.32-.12-2.43-.12-3.32v-7.82h2.86v20.05h-2.89l-4.47-9.82c-.82-2.04-1.46-3.67-1.92-4.87l-.09,.06c.1,.99,.18,2.15,.25,3.48,.07,1.33,.1,2.47,.1,3.42v7.73h-2.87v-20.05h0Zm18.57,11.45h7.01v2.46h-7.01v-2.46h0Zm18.31,8.97c-1.79,0-3.22-.53-4.27-1.57-1.05-1.05-1.59-2.48-1.6-4.3h2.95c.02,1.01,.28,1.77,.79,2.29,.51,.52,1.22,.77,2.14,.77s1.65-.25,2.13-.75c.49-.5,.73-1.16,.73-2s-.3-1.49-.89-2.05c-.59-.56-1.49-1.2-2.69-1.91-1.05-.65-1.89-1.22-2.52-1.72-.63-.49-1.17-1.12-1.62-1.86-.45-.75-.67-1.62-.67-2.64,0-.95,.22-1.82,.67-2.59,.45-.77,1.09-1.38,1.92-1.82,.83-.44,1.79-.66,2.9-.66,1.7,0,3.04,.51,4.04,1.52,.99,1.01,1.51,2.38,1.55,4.1h-2.95c-.02-.94-.26-1.64-.72-2.12-.46-.48-1.09-.72-1.89-.72s-1.43,.21-1.89,.63c-.46,.42-.69,.99-.69,1.72,0,.55,.15,1.04,.46,1.46,.3,.42,.68,.79,1.13,1.11,.45,.31,1.08,.72,1.9,1.22,1.07,.63,1.93,1.19,2.58,1.69,.65,.5,1.2,1.13,1.66,1.91,.46,.77,.69,1.69,.69,2.76,0,1.01-.23,1.94-.69,2.78-.46,.84-1.13,1.51-2.02,2-.89,.5-1.93,.75-3.14,.75Zm-49.28-20.42v3.64h-.06c-.25,1.82-.5,3.25-.75,4.3l-1.23,5.39h2.03v2.69h-2.66l-.92,4.04h-3.04l5.04-20.05h1.58Zm-79.98,14.33v-4.32c.8-.08,1.42-.39,1.87-.92,.53-.63,.79-1.55,.79-2.75s-.26-2.08-.78-2.68c-.44-.52-1.07-.81-1.89-.88v-2.76c1.73,.07,3.08,.62,4.06,1.64,1.05,1.1,1.58,2.64,1.58,4.63,0,1.55-.32,2.84-.95,3.9-.63,1.05-1.52,1.79-2.66,2.2l4.35,7.68h-3.21l-3.17-5.72h0Zm17.99,6.01c-1.8,0-3.22-.56-4.28-1.67-1.06-1.12-1.59-2.69-1.59-4.71v-13.95h2.95v13.95c0,1.18,.26,2.08,.77,2.68,.52,.6,1.23,.9,2.15,.9s1.66-.3,2.17-.9c.52-.6,.78-1.49,.78-2.68v-13.95h2.92v13.95c0,2.02-.53,3.59-1.58,4.71-1.05,1.11-2.48,1.67-4.3,1.67h0Zm17.76,.09c-1.79,0-3.22-.53-4.27-1.57-1.05-1.05-1.59-2.48-1.6-4.3h2.95c.02,1.01,.28,1.77,.79,2.29,.51,.52,1.22,.77,2.13,.77s1.65-.25,2.14-.75c.48-.5,.73-1.16,.73-2s-.3-1.49-.89-2.05c-.59-.56-1.49-1.2-2.69-1.91-1.05-.65-1.89-1.22-2.52-1.72-.63-.49-1.17-1.12-1.62-1.86-.45-.75-.67-1.62-.67-2.64,0-.95,.22-1.82,.67-2.59,.45-.77,1.09-1.38,1.92-1.82,.83-.44,1.8-.66,2.91-.66,1.7,0,3.04,.51,4.04,1.52,.99,1.01,1.51,2.38,1.55,4.1h-2.95c-.02-.94-.26-1.64-.72-2.12-.46-.48-1.09-.72-1.89-.72s-1.43,.21-1.89,.63c-.46,.42-.69,.99-.69,1.72,0,.55,.15,1.04,.46,1.46,.3,.42,.68,.79,1.13,1.11,.45,.31,1.09,.72,1.91,1.22,1.07,.63,1.93,1.19,2.58,1.69,.65,.5,1.2,1.13,1.66,1.91,.46,.77,.69,1.69,.69,2.76,0,1.01-.23,1.94-.69,2.78-.46,.84-1.13,1.51-2.02,2-.89,.5-1.93,.75-3.14,.75h0Zm16.91,0c-1.8,0-3.22-.53-4.27-1.57-1.05-1.05-1.59-2.48-1.6-4.3h2.95c.02,1.01,.28,1.77,.79,2.29,.51,.52,1.22,.77,2.14,.77s1.64-.25,2.13-.75c.48-.5,.73-1.16,.73-2s-.3-1.49-.89-2.05c-.59-.56-1.49-1.2-2.69-1.91-1.05-.65-1.89-1.22-2.52-1.72-.63-.49-1.17-1.12-1.62-1.86-.45-.75-.67-1.62-.67-2.64,0-.95,.22-1.82,.67-2.59,.45-.77,1.09-1.38,1.92-1.82,.83-.44,1.8-.66,2.91-.66,1.7,0,3.04,.51,4.04,1.52,.99,1.01,1.51,2.38,1.55,4.1h-2.95c-.02-.94-.26-1.64-.72-2.12-.46-.48-1.09-.72-1.89-.72s-1.43,.21-1.89,.63c-.46,.42-.68,.99-.68,1.72,0,.55,.15,1.04,.46,1.46,.3,.42,.68,.79,1.13,1.11,.45,.31,1.09,.72,1.91,1.22,1.07,.63,1.93,1.19,2.58,1.69,.65,.5,1.2,1.13,1.66,1.91,.46,.77,.69,1.69,.69,2.76,0,1.01-.23,1.94-.69,2.78-.46,.84-1.13,1.51-2.02,2-.89,.5-1.93,.75-3.14,.75h0Zm12.03-20.42h2.89v20.05h-2.89v-20.05Zm-64.7,0v2.76l-.41-.02h-2.26v7.27h2.23l.43-.02v4.32l-.86-1.55h-1.8v7.27h-2.89v-20.05h5.56Zm-50.88,20.42v-2.84c1.03,0,1.81-.33,2.35-1,.54-.67,.8-1.63,.8-2.89v-7.33c0-1.26-.27-2.22-.8-2.89-.53-.67-1.31-1-2.35-1v-2.83c1.91,0,3.41,.59,4.5,1.79,1.09,1.19,1.63,2.84,1.63,4.94v7.33c0,2.1-.54,3.74-1.63,4.94-1.09,1.2-2.58,1.79-4.5,1.79h0Zm16.05-17.7v5.98h6.04v2.64h-6.04v8.71h-2.89v-20.05h9.45v2.72h-6.56Zm-16.05-3.09v2.83h0c-1.03,0-1.81,.34-2.35,1-.54,.67-.8,1.63-.8,2.89v7.33c0,1.26,.27,2.22,.8,2.89,.53,.67,1.32,1,2.35,1h0v2.84h0c-1.91,0-3.41-.59-4.49-1.79-1.09-1.19-1.63-2.84-1.63-4.94v-7.33c0-2.1,.54-3.74,1.63-4.94,1.09-1.2,2.59-1.79,4.49-1.79h0Zm-112.23,20.79v-2.84c1.03,0,1.81-.33,2.35-1,.54-.67,.8-1.63,.8-2.89v-7.33c0-1.26-.27-2.22-.8-2.89-.54-.67-1.31-1-2.35-1v-2.83c1.91,0,3.41,.59,4.49,1.79,1.09,1.19,1.63,2.84,1.63,4.94v7.33c0,2.1-.54,3.74-1.63,4.94-1.09,1.2-2.58,1.79-4.49,1.79h0Zm18.39-.03c-1.8,0-3.21-.54-4.25-1.63-1.04-1.09-1.56-2.62-1.56-4.61v-8.25c0-2,.51-3.55,1.55-4.64,1.03-1.09,2.44-1.63,4.24-1.63s3.26,.53,4.3,1.59c1.03,1.06,1.59,2.58,1.66,4.57h-2.86c-.08-1.16-.37-2.03-.89-2.58-.52-.55-1.26-.83-2.24-.83-.88,0-1.56,.3-2.06,.89-.5,.59-.75,1.47-.75,2.63v8.25c0,1.16,.25,2.04,.76,2.62,.5,.58,1.21,.87,2.1,.87,.97,0,1.73-.28,2.25-.83,.53-.55,.83-1.4,.93-2.55h2.86c-.09,1.97-.67,3.48-1.7,4.54-1.04,1.06-2.49,1.59-4.34,1.59h0Zm12.44-20.39h2.89v20.05h-2.89v-20.05h0Zm20.57,17.33v2.72h-10.11v-20.05h9.82v2.72h-6.93v5.81h6.39v2.66h-6.39v6.13h7.22Zm16.45-14.58h-4.18v17.3h-2.95v-17.3h-4.15v-2.75h11.29v2.75h0Zm9,10.71l-4.87-13.46h3.01l2.26,6.67c.48,1.43,.81,2.48,1,3.15h.06l1.03-3.21,2.23-6.61h3.03l-4.87,13.46v6.59h-2.89v-6.59Zm-76.85-13.83v2.83h0c-1.03,0-1.81,.34-2.35,1-.54,.67-.8,1.63-.8,2.89v7.33c0,1.26,.27,2.22,.8,2.89,.53,.67,1.32,1,2.35,1h0v2.84h0c-1.91,0-3.41-.59-4.49-1.79-1.09-1.19-1.63-2.84-1.63-4.94v-7.33c0-2.1,.54-3.74,1.63-4.94,1.09-1.2,2.59-1.79,4.49-1.79h0Zm-70.76,16.38v-2.69h2.03l-1.26-5.39c-.28-1.33-.53-2.77-.74-4.3h-.03v-3.64h1.54l5.04,20.05h-3.01l-.95-4.04h-2.63Zm12.41-16.01h2.89l4.61,10.22c.34,.76,.95,2.23,1.83,4.41l.09-.06c-.11-.97-.21-2.12-.29-3.44-.08-1.32-.11-2.43-.11-3.32v-7.82h2.86v20.05h-2.89l-4.47-9.82c-.82-2.04-1.46-3.67-1.92-4.87l-.09,.06c.1,.99,.18,2.15,.25,3.48,.07,1.33,.1,2.47,.1,3.42v7.73h-2.87v-20.05h0Zm40.5,20.42c-1.8,0-3.22-.53-4.27-1.57-1.05-1.05-1.59-2.48-1.6-4.3h2.95c.02,1.01,.28,1.77,.78,2.29,.51,.52,1.22,.77,2.14,.77s1.65-.25,2.14-.75c.49-.5,.73-1.16,.73-2s-.3-1.49-.89-2.05c-.59-.56-1.49-1.2-2.69-1.91-1.05-.65-1.89-1.22-2.52-1.72-.63-.49-1.17-1.12-1.62-1.86-.45-.75-.67-1.62-.67-2.64,0-.95,.23-1.82,.67-2.59,.45-.77,1.09-1.38,1.92-1.82,.83-.44,1.8-.66,2.91-.66,1.69,0,3.04,.51,4.03,1.52,.99,1.01,1.51,2.38,1.55,4.1h-2.95c-.02-.94-.26-1.64-.72-2.12-.46-.48-1.09-.72-1.89-.72s-1.43,.21-1.89,.63c-.46,.42-.69,.99-.69,1.72,0,.55,.15,1.04,.46,1.46,.3,.42,.68,.79,1.13,1.11,.45,.31,1.08,.72,1.91,1.22,1.07,.63,1.93,1.19,2.58,1.69,.65,.5,1.2,1.13,1.66,1.91,.46,.77,.69,1.69,.69,2.76,0,1.01-.23,1.94-.69,2.78-.46,.84-1.13,1.51-2.02,2-.89,.5-1.93,.75-3.14,.75Zm-52.91-20.42v3.64h-.06c-.25,1.82-.5,3.25-.75,4.3l-1.23,5.39h2.03v2.69h-2.67l-.91,4.04h-3.04l5.04-20.05h1.58Zm-44.85,14.32v-4.32c.8-.08,1.43-.39,1.88-.92,.52-.63,.79-1.55,.79-2.75s-.26-2.08-.77-2.68c-.44-.52-1.07-.81-1.89-.88v-2.76c1.73,.07,3.09,.62,4.06,1.64,1.05,1.1,1.58,2.64,1.58,4.63,0,1.55-.32,2.84-.95,3.9-.63,1.05-1.52,1.79-2.66,2.2l4.35,7.68h-3.21l-3.18-5.72h0Zm12.47-14.32h2.89v20.05h-2.89v-20.05h0Zm15.7,20.39c-1.79,0-3.21-.54-4.25-1.63-1.04-1.09-1.56-2.62-1.56-4.61v-8.25c0-2,.51-3.55,1.55-4.64,1.03-1.09,2.44-1.63,4.24-1.63s3.27,.53,4.3,1.59c1.03,1.06,1.59,2.58,1.66,4.57h-2.86c-.07-1.16-.37-2.03-.89-2.58-.51-.55-1.26-.83-2.23-.83-.88,0-1.57,.3-2.06,.89-.5,.59-.75,1.47-.75,2.63v8.25c0,1.16,.25,2.04,.76,2.62,.51,.58,1.21,.87,2.1,.87,.98,0,1.72-.28,2.25-.83,.52-.55,.83-1.4,.93-2.55h2.86c-.09,1.97-.66,3.48-1.7,4.54-1.04,1.06-2.49,1.59-4.34,1.59Zm-83.58-4.38h-2.63v-2.69h2.03l-1.26-5.39c-.28-1.33-.53-2.77-.74-4.3h-.03v-3.64h1.54l5.04,20.05h-3.01l-.95-4.04h0Zm55.42-16v2.76l-.4-.02h-2.26v7.27h2.24l.43-.02v4.32l-.86-1.55h-1.8v7.27h-2.89v-20.05h5.56Zm-29.95,0v20.05h-2.84v-7.82c.08-2.81,.15-4.96,.23-6.47l-.12-.06c-.38,1.07-1.03,2.83-1.95,5.27l-1.74,4.55h-2.87l-1.75-4.55c-.92-2.44-1.57-4.2-1.95-5.27l-.11,.06c.11,2.79,.19,4.95,.23,6.47v7.82h-2.84v-20.05h2.95l3.38,8.13c.44,1.09,.93,2.41,1.46,3.98h.11c.54-1.57,1.02-2.89,1.46-3.98l3.38-8.13h2.95Zm17.71,17.33v2.72h-10.11v-20.05h9.82v2.72h-6.93v5.81h6.39v2.66h-6.39v6.13h7.22Zm-45.81-1.32h-2.67l-.91,4.04h-3.04l5.04-20.05h1.58v3.64h-.06c-.25,1.82-.5,3.25-.75,4.3l-1.23,5.39h2.04v2.69Z"/>
  <path class="cls-1" d="M897.49,685h-1.34c-32.17,.73-58.03,27.03-58.03,59.37s25.86,58.65,58.03,59.37h1.34c10.74,.01,20.81-2.84,29.49-7.83,1.22-18.37,6.58-36.84,17.22-55.14,2.76-4.78,6.13-9.49,9.97-14.14-7.55-24.13-30.06-41.63-56.68-41.63Zm23.71,85.45c.38,.96,1.14,1.6,2.26,1.92,1.12,.32,2.77,.48,4.95,.48,.19,0,.28,.2,.28,.58s-.09,.58-.28,.58c-1.61,0-3.43-.03-5.48-.1-2.05-.06-4.2-.1-6.44-.1-2.5,0-4.81,.04-6.92,.1-2.11,.07-4.04,.1-5.77,.1-.19,0-.28-.2-.28-.58s.09-.58,.28-.58c2.18,0,3.83-.16,4.95-.48,1.12-.32,1.86-.96,2.21-1.92,.36-.96,.53-2.37,.53-4.23v-43.63c0-1.98-.09-3.39-.29-4.22-.19-.84-.67-1.33-1.44-1.49-.77-.16-2.11-.24-4.03-.24h-19.7c-1.99,0-3.42,.09-4.28,.28-.87,.2-1.39,.71-1.59,1.54-.19,.84-.28,2.21-.28,4.13v43.63c0,1.86,.17,3.27,.52,4.23,.36,.96,1.09,1.6,2.21,1.92,1.12,.32,2.77,.48,4.95,.48,.2,0,.29,.2,.29,.58s-.09,.58-.29,.58c-1.73,0-3.65-.03-5.76-.1-2.12-.06-4.46-.1-7.02-.1-2.24,0-4.39,.04-6.44,.1-2.05,.07-3.87,.1-5.47,.1-.13,0-.2-.2-.2-.58s.07-.58,.2-.58c2.24,0,3.9-.16,4.99-.48,1.09-.32,1.84-.96,2.26-1.92,.42-.96,.63-2.37,.63-4.23v-43.34c0-2.75-.47-4.74-1.4-5.96-.93-1.21-3.06-1.82-6.39-1.82-.13,0-.19-.19-.19-.58s.06-.57,.19-.57c1.16,0,3.38,.03,6.68,.09,3.3,.07,7.27,.11,11.92,.15,4.64,.03,9.46,.04,14.46,.04,4.04,0,7.9-.01,11.58-.04,3.68-.04,7.03-.07,10.04-.1,3.01-.03,5.46-.06,7.35-.1,1.89-.03,3.03-.04,3.42-.04,.19,0,.28,.19,.28,.57s-.09,.58-.28,.58c-3.27,0-5.39,.61-6.35,1.82-.96,1.22-1.44,3.21-1.44,5.96v43.34c0,1.86,.19,3.27,.58,4.23Z"/>
  <g>
    <path class="cls-1" d="M987.95,870.46c53.92-56.12,113.8-117.13,122.74-186.33l1.59-12.33c15.63,28.71,8.75,62.25-7.61,94.77-21.68,6.83-37.4,27.09-37.4,51.02,0,1.83,.09,3.63,.27,5.41-19.6,24.73-40.38,46.19-54.4,60.79-53.92,56.12-113.8,117.12-122.75,186.33l-1.59,12.33c-15.53-92.16,58.64-169.82,99.15-211.98Z"/>
    <path class="cls-1" d="M960.73,866.16c-21.11-34.78-33.04-75.88-9.24-116.84,29.42-50.63,148.09-94.11,171.83-139.25-27.28,97.14-208.45,106.39-135.77,240.91l-20.71,25.25-6.11-10.07Z"/>
    <path class="cls-1" d="M1064.06,864.12c19.33,34.78,29.18,75.88,3.28,116.84-32,50.63-152.89,94.11-178.92,139.25,32.23-97.14,213.87-106.39,148.05-240.92l21.99-25.25,5.6,10.07Z"/>
    <g>
      <path class="cls-1" d="M964.36,832.41h37.4c2.68,0,5.16-2.19,5.51-4.88h0c.35-2.68-1.56-4.88-4.25-4.88h-37.4c-2.68,0-5.16,2.2-5.51,4.88h0c-.35,2.69,1.57,4.88,4.25,4.88Z"/>
      <path class="cls-1" d="M968.12,803.32h46.66c2.68,0,5.16-2.19,5.5-4.88h0c.35-2.68-1.56-4.88-4.24-4.88h-46.65c-2.68,0-5.16,2.19-5.51,4.88h0c-.35,2.68,1.56,4.88,4.24,4.88Z"/>
      <path class="cls-1" d="M971.88,774.23h75c2.68,0,5.16-2.19,5.51-4.87h0c.34-2.69-1.57-4.88-4.25-4.88h-75c-2.68,0-5.16,2.19-5.51,4.87h0c-.34,2.69,1.57,4.88,4.25,4.88Z"/>
      <path class="cls-1" d="M975.64,745.14h90.28c2.68,0,5.16-2.19,5.51-4.87h0c.35-2.69-1.56-4.88-4.25-4.88h-90.27c-2.69,0-5.16,2.19-5.51,4.88h0c-.35,2.69,1.56,4.88,4.24,4.88Z"/>
      <path class="cls-1" d="M1006.58,716.05h73.68c2.68,0,5.16-2.19,5.51-4.88h0c.35-2.68-1.56-4.88-4.24-4.88h-73.68c-2.68,0-5.16,2.19-5.51,4.88h0c-.35,2.68,1.57,4.88,4.24,4.88Z"/>
    </g>
    <g>
      <path class="cls-1" d="M1054.98,895.48h-37.4c-2.68,0-5.16,2.19-5.51,4.88h0c-.35,2.68,1.56,4.88,4.24,4.88h37.4c2.68,0,5.16-2.2,5.51-4.88h0c.34-2.68-1.57-4.88-4.25-4.88Z"/>
      <path class="cls-1" d="M1063,924.57h-63.76c-2.68,0-5.16,2.19-5.51,4.88h0c-.35,2.68,1.56,4.88,4.25,4.88h63.76c2.68,0,5.16-2.19,5.51-4.87h0c.34-2.69-1.57-4.88-4.25-4.88Z"/>
      <path class="cls-1" d="M1054.98,953.66h-87.85c-2.68,0-5.16,2.19-5.51,4.88h0c-.34,2.69,1.57,4.88,4.24,4.88h87.86c2.68,0,5.16-2.19,5.5-4.87h0c.35-2.69-1.57-4.88-4.24-4.88Z"/>
      <path class="cls-1" d="M1038.36,982.75h-90.27c-2.68,0-5.16,2.19-5.51,4.87h0c-.34,2.69,1.56,4.88,4.25,4.88h90.27c2.68,0,5.16-2.2,5.51-4.88h0c.35-2.69-1.56-4.88-4.25-4.88Z"/>
      <path class="cls-1" d="M1002.1,1011.84h-73.68c-2.68,0-5.16,2.2-5.51,4.88h0c-.35,2.68,1.56,4.88,4.24,4.88h73.68c2.68,0,5.16-2.2,5.51-4.88h0c.35-2.68-1.57-4.88-4.25-4.88Z"/>
    </g>
  </g>
  <path class="cls-2" d="M1135.42,769.15c-31.92,0-57.81,25.87-57.81,57.81s25.89,57.81,57.81,57.81,57.82-25.88,57.82-57.81-25.89-57.81-57.82-57.81Zm29.72,29.88c-.14,1.97-.25,4.04-.32,6.23-.07,2.18-.14,4.18-.21,6.01-.08,1.82-.11,3.2-.11,4.13,0,.14-.2,.21-.59,.21s-.63-.07-.7-.21c-.79-5.65-2.5-9.75-5.15-12.29-2.65-2.54-6.19-3.81-10.63-3.81-1.93,0-3.39,.18-4.4,.54-1,.36-1.68,1.02-2.04,1.98-.35,.97-.53,2.35-.53,4.13v49.48c0,2.08,.23,3.65,.7,4.72,.46,1.08,1.35,1.79,2.68,2.15,1.32,.36,3.34,.54,6.06,.54,.22,0,.32,.21,.32,.64s-.1,.64-.32,.64c-1.93,0-4.13-.03-6.6-.1s-5.17-.11-8.1-.11-5.4,.04-7.84,.11c-2.43,.07-4.68,.1-6.76,.1-.14,0-.21-.21-.21-.64s.07-.64,.21-.64c2.72,0,4.76-.18,6.12-.54,1.36-.36,2.27-1.07,2.74-2.15,.46-1.07,.7-2.64,.7-4.72v-49.69c0-1.79-.17-3.13-.49-4.03-.32-.89-.98-1.51-1.98-1.87-1.01-.36-2.47-.54-4.4-.54-4.37,0-7.93,1.36-10.68,4.08-2.76,2.72-4.92,6.72-6.5,12.02,0,.21-.19,.3-.59,.27-.39-.04-.59-.13-.59-.27,.15-1,.29-2.38,.43-4.13,.15-1.76,.31-3.67,.49-5.75,.17-2.07,.32-4.09,.43-6.06,.1-1.97,.16-3.56,.16-4.78,0-.35,.19-.53,.59-.53s.59,.18,.59,.53c0,.72,.37,1.24,1.12,1.56s1.6,.54,2.53,.65c.93,.1,1.71,.16,2.36,.16,6.15,.21,13.34,.32,21.57,.32,5.08,0,9.1-.06,12.07-.16,2.97-.11,5.85-.16,8.64-.16,2.58,0,4.53-.16,5.85-.49,1.33-.32,2.17-1.05,2.52-2.2,.07-.28,.29-.43,.65-.43s.53,.15,.53,.43c-.07,1.15-.17,2.7-.32,4.67Z"/>
  <path class="cls-1" d="M1117.94,974.37c-26.59,0-48.14,21.56-48.14,48.15s21.55,48.15,48.14,48.15,48.15-21.57,48.15-48.15-21.55-48.15-48.15-48.15Zm23.66,35.84c-.36,.03-.57-.05-.64-.25-.79-4.6-2.4-8.03-4.83-10.3s-5.65-3.4-9.66-3.4h-4.63c-2.43,0-4.13,.43-5.08,1.28-.95,.86-1.43,2.27-1.43,4.24v45.15c0,1.97,.26,3.46,.79,4.48s1.58,1.72,3.16,2.12c1.57,.39,3.94,.59,7.09,.59,.13,0,.2,.2,.2,.59s-.07,.59-.2,.59c-2.23,0-4.63-.03-7.19-.1-2.57-.06-5.49-.09-8.78-.09-2.3,0-4.53,.03-6.7,.09-2.17,.07-4.07,.1-5.72,.1-.19,0-.29-.19-.29-.59s.1-.59,.29-.59c2.3,0,4.01-.16,5.13-.49,1.12-.33,1.87-.99,2.27-1.97,.39-.99,.59-2.43,.59-4.34v-45.64c0-1.9-.18-3.33-.54-4.29-.37-.95-1.07-1.61-2.12-1.97-1.05-.36-2.66-.54-4.83-.54-.2,0-.3-.2-.3-.59s.1-.59,.3-.59h42.48c.66,0,.99,.29,.99,.89l.19,15.27c0,.2-.18,.32-.54,.35Z"/>
  <path class="cls-2" d="M860.94,869.59c-4.07-1.13-8.35-1.75-12.79-1.75s-8.46,.58-12.41,1.65c-20.11,5.45-34.9,23.84-34.9,45.67s14.79,40.2,34.9,45.66c3.95,1.07,8.11,1.65,12.41,1.65s8.72-.62,12.79-1.75c19.92-5.59,34.51-23.87,34.51-45.56s-14.59-39.98-34.51-45.57Zm17.81,70.9c-1.74,0-3.52-.05-5.35-.17-1.83-.12-3.59-.18-5.28-.18-1.91,0-3.58,.06-5.01,.18-1.42,.12-3,.17-4.74,.17-.24,0-.35-.17-.35-.52s.11-.52,.35-.52c2.61,0,4.18-.47,4.7-1.4,.52-.92,.09-2.75-1.31-5.49l-17.69-35.97-14.2,31.97c-1.51,3.54-1.55,6.24-.13,8.1,1.43,1.86,3.85,2.79,7.28,2.79,.29,0,.43,.17,.43,.52s-.14,.52-.43,.52c-1.74,0-3.34-.05-4.79-.17-1.46-.12-3.29-.18-5.49-.18s-3.97,.06-5.27,.18c-1.31,.12-2.92,.17-4.84,.17-.23,0-.35-.17-.35-.52s.12-.52,.35-.52c1.57,0,2.92-.32,4.05-.96,1.13-.64,2.25-1.82,3.36-3.53,1.1-1.71,2.32-4.11,3.66-7.19l18.73-42.26c.11-.17,.38-.26,.78-.26s.64,.09,.7,.26l21.35,43.05c1.33,2.78,2.52,4.98,3.57,6.57,1.04,1.6,2.03,2.72,2.96,3.36,.93,.64,1.92,.96,2.96,.96,.24,0,.35,.17,.35,.52s-.11,.52-.35,.52Z"/>
  <path class="cls-1" d="M837.09,815.76c5.7,0,10.32,4.62,10.32,10.32s-4.62,10.32-10.32,10.32-10.32-4.62-10.32-10.32,4.62-10.32,10.32-10.32Z"/>
  <path class="cls-1" d="M909.77,849.41c8.67,0,15.7,7.03,15.7,15.7s-7.03,15.7-15.7,15.7-15.7-7.03-15.7-15.7,7.03-15.7,15.7-15.7Z"/>
  <path class="cls-1" d="M1173.59,917.16c14.13,0,25.57,11.45,25.57,25.58s-11.45,25.57-25.57,25.57-25.57-11.45-25.57-25.57,11.45-25.58,25.57-25.58Z"/>
  <path class="cls-1" d="M1110.78,895.62c6.57,0,11.89,5.32,11.89,11.89s-5.32,11.89-11.89,11.89-11.89-5.32-11.89-11.89,5.32-11.89,11.89-11.89Z"/>
  <path class="cls-2" d="M1140.5,731.86c4.65,0,8.41,3.77,8.41,8.41s-3.77,8.41-8.41,8.41-8.41-3.77-8.41-8.41,3.77-8.41,8.41-8.41Z"/>
  <path class="cls-2" d="M868.5,989.5c4.64,0,8.41,3.77,8.41,8.41s-3.77,8.41-8.41,8.41-8.41-3.77-8.41-8.41,3.77-8.41,8.41-8.41Z"/>
  <path class="cls-2" d="M967.21,651.1c14.13,0,25.57,11.45,25.57,25.57s-11.45,25.57-25.57,25.57-25.57-11.45-25.57-25.57,11.45-25.57,25.57-25.57Z"/>
</svg>