<?xml version="1.0" encoding="UTF-8"?>
<svg id="Layer_1" data-name="Layer 1" xmlns="http://www.w3.org/2000/svg" viewBox="0 0 2000 2000">
  <defs>
    <style>
      .cls-1 {
        fill: #c90000;
      }

      .cls-2 {
        fill: #fff;
        fill-rule: evenodd;
      }
    </style>
  </defs>
  <rect class="cls-1" width="2000" height="2000"/>
  <g>
    <g>
      <path class="cls-2" d="M510.24,862.54h-1.02c-24.55,.56-44.28,20.63-44.28,45.3s19.73,44.75,44.28,45.3h1.02c8.2,0,15.88-2.17,22.5-5.97,.93-14.02,5.02-28.11,13.14-42.08,2.11-3.65,4.68-7.24,7.61-10.79-5.76-18.41-22.94-31.77-43.25-31.77Zm18.09,65.2c.29,.73,.87,1.22,1.72,1.47,.85,.24,2.11,.37,3.78,.37,.14,0,.21,.15,.21,.44s-.07,.44-.21,.44c-1.23,0-2.62-.02-4.18-.08-1.56-.05-3.2-.08-4.91-.08-1.91,0-3.67,.03-5.28,.08-1.61,.05-3.08,.08-4.4,.08-.14,0-.21-.15-.21-.44s.07-.44,.21-.44c1.66,0,2.92-.12,3.78-.37,.85-.24,1.42-.73,1.69-1.47,.27-.73,.4-1.81,.4-3.23v-33.29c0-1.51-.07-2.59-.22-3.22-.14-.64-.51-1.01-1.1-1.14-.59-.12-1.61-.18-3.08-.18h-15.03c-1.52,0-2.61,.07-3.27,.21-.66,.15-1.06,.54-1.21,1.18-.14,.64-.21,1.69-.21,3.15v33.29c0,1.42,.13,2.5,.4,3.23,.27,.73,.83,1.22,1.69,1.47,.85,.24,2.11,.37,3.78,.37,.15,0,.22,.15,.22,.44s-.07,.44-.22,.44c-1.32,0-2.79-.02-4.4-.08-1.62-.05-3.4-.08-5.36-.08-1.71,0-3.35,.03-4.91,.08-1.56,.05-2.95,.08-4.17,.08-.1,0-.15-.15-.15-.44s.05-.44,.15-.44c1.71,0,2.98-.12,3.81-.37,.83-.24,1.4-.73,1.72-1.47,.32-.73,.48-1.81,.48-3.23v-33.07c0-2.1-.36-3.62-1.07-4.55-.71-.92-2.34-1.39-4.88-1.39-.1,0-.14-.14-.14-.44s.05-.43,.14-.43c.89,0,2.58,.02,5.1,.07,2.52,.05,5.55,.08,9.1,.11,3.54,.02,7.22,.03,11.03,.03,3.08,0,6.03,0,8.84-.03,2.81-.03,5.36-.05,7.66-.08,2.3-.02,4.17-.05,5.61-.08,1.44-.02,2.31-.03,2.61-.03,.14,0,.21,.14,.21,.43s-.07,.44-.21,.44c-2.5,0-4.11,.47-4.85,1.39-.73,.93-1.1,2.45-1.1,4.55v33.07c0,1.42,.14,2.5,.44,3.23Z"/>
      <g>
        <path class="cls-2" d="M579.27,1004.06c41.14-42.83,86.84-89.38,93.66-142.19l1.21-9.41c11.93,21.91,6.68,47.5-5.81,72.31-16.54,5.21-28.54,20.67-28.54,38.93,0,1.39,.07,2.77,.21,4.13-14.95,18.87-30.81,35.25-41.51,46.38-41.15,42.83-86.84,89.37-93.66,142.19l-1.22,9.41c-11.85-70.32,44.74-129.59,75.66-161.76Z"/>
        <path class="cls-2" d="M558.49,1000.78c-16.11-26.54-25.21-57.9-7.05-89.16,22.45-38.63,113.01-71.81,131.12-106.26-20.81,74.12-159.06,81.18-103.6,183.83l-15.8,19.27-4.66-7.68Z"/>
        <path class="cls-2" d="M637.34,999.22c14.75,26.54,22.26,57.9,2.5,89.16-24.42,38.63-116.67,71.81-136.53,106.26,24.59-74.12,163.2-81.18,112.97-183.84l16.78-19.27,4.27,7.68Z"/>
        <g>
          <path class="cls-2" d="M561.27,975.02h28.54c2.05,0,3.93-1.67,4.2-3.72h0c.26-2.05-1.19-3.72-3.24-3.72h-28.54c-2.05,0-3.94,1.68-4.2,3.72h0c-.26,2.05,1.2,3.72,3.24,3.72Z"/>
          <path class="cls-2" d="M564.13,952.83h35.6c2.05,0,3.93-1.67,4.2-3.72h0c.26-2.05-1.19-3.72-3.24-3.72h-35.6c-2.05,0-3.94,1.67-4.2,3.72h0c-.27,2.05,1.19,3.72,3.24,3.72Z"/>
          <path class="cls-2" d="M567.01,930.63h57.23c2.05,0,3.94-1.67,4.2-3.72h0c.26-2.05-1.2-3.72-3.24-3.72h-57.23c-2.05,0-3.94,1.67-4.2,3.72h0c-.26,2.05,1.2,3.72,3.24,3.72Z"/>
          <path class="cls-2" d="M569.88,908.43h68.89c2.05,0,3.94-1.67,4.2-3.72h0c.26-2.05-1.19-3.72-3.24-3.72h-68.89c-2.05,0-3.94,1.67-4.2,3.72h0c-.27,2.05,1.19,3.72,3.24,3.72Z"/>
          <path class="cls-2" d="M593.48,886.23h56.22c2.05,0,3.94-1.67,4.2-3.72h0c.26-2.05-1.19-3.72-3.24-3.72h-56.22c-2.04,0-3.94,1.67-4.2,3.72h0c-.26,2.05,1.19,3.72,3.24,3.72Z"/>
        </g>
        <g>
          <path class="cls-2" d="M630.41,1023.16h-28.54c-2.05,0-3.94,1.67-4.2,3.72h0c-.27,2.05,1.19,3.72,3.24,3.72h28.54c2.05,0,3.94-1.68,4.2-3.72h0c.26-2.05-1.2-3.72-3.24-3.72Z"/>
          <path class="cls-2" d="M636.53,1045.35h-48.65c-2.05,0-3.94,1.67-4.2,3.72h0c-.27,2.05,1.19,3.72,3.24,3.72h48.65c2.05,0,3.94-1.67,4.2-3.72h0c.26-2.05-1.2-3.72-3.24-3.72Z"/>
          <path class="cls-2" d="M630.41,1067.55h-67.04c-2.04,0-3.93,1.67-4.2,3.72h0c-.26,2.05,1.2,3.72,3.24,3.72h67.04c2.04,0,3.93-1.67,4.2-3.72h0c.26-2.05-1.2-3.72-3.24-3.72Z"/>
          <path class="cls-2" d="M617.73,1089.75h-68.89c-2.05,0-3.94,1.67-4.2,3.72h0c-.26,2.05,1.19,3.73,3.24,3.73h68.89c2.05,0,3.94-1.68,4.2-3.72h0c.26-2.05-1.19-3.72-3.24-3.72Z"/>
          <path class="cls-2" d="M590.06,1111.95h-56.22c-2.05,0-3.94,1.68-4.2,3.72h0c-.27,2.05,1.19,3.72,3.24,3.72h56.22c2.04,0,3.93-1.68,4.2-3.72h0c.26-2.05-1.2-3.72-3.24-3.72Z"/>
        </g>
      </g>
      <path class="cls-2" d="M691.79,926.75c-24.36,0-44.11,19.74-44.11,44.11s19.76,44.11,44.11,44.11,44.12-19.75,44.12-44.11-19.76-44.11-44.12-44.11Zm22.68,22.8c-.11,1.5-.19,3.08-.24,4.75-.05,1.66-.11,3.19-.16,4.59-.06,1.39-.08,2.44-.08,3.15,0,.11-.15,.16-.45,.16s-.48-.05-.53-.16c-.6-4.31-1.91-7.44-3.93-9.38-2.02-1.94-4.72-2.91-8.11-2.91-1.47,0-2.59,.14-3.36,.41-.76,.27-1.28,.78-1.56,1.51-.27,.74-.4,1.79-.4,3.15v37.76c0,1.59,.18,2.79,.53,3.6,.35,.82,1.03,1.37,2.04,1.64,1.01,.27,2.55,.41,4.62,.41,.17,0,.24,.16,.24,.49s-.08,.49-.24,.49c-1.47,0-3.15-.02-5.04-.08s-3.95-.08-6.18-.08-4.12,.03-5.98,.08c-1.85,.05-3.57,.08-5.16,.08-.11,0-.16-.16-.16-.49s.05-.49,.16-.49c2.08,0,3.63-.14,4.67-.41,1.04-.27,1.73-.82,2.09-1.64,.35-.82,.53-2.01,.53-3.6v-37.92c0-1.37-.13-2.39-.37-3.08-.24-.68-.75-1.15-1.51-1.43-.77-.27-1.88-.41-3.36-.41-3.33,0-6.05,1.04-8.15,3.11-2.11,2.08-3.75,5.13-4.96,9.17,0,.16-.14,.23-.45,.21-.3-.03-.45-.1-.45-.21,.11-.76,.22-1.82,.33-3.15,.11-1.34,.24-2.8,.37-4.39,.13-1.58,.24-3.12,.33-4.62,.08-1.5,.12-2.72,.12-3.65,0-.27,.14-.4,.45-.4s.45,.14,.45,.4c0,.55,.28,.95,.85,1.19s1.22,.41,1.93,.5c.71,.08,1.3,.12,1.8,.12,4.69,.16,10.18,.24,16.46,.24,3.88,0,6.94-.05,9.21-.12,2.27-.08,4.46-.12,6.59-.12,1.97,0,3.46-.12,4.46-.37,1.01-.24,1.66-.8,1.92-1.68,.05-.21,.22-.33,.5-.33s.4,.11,.4,.33c-.05,.88-.13,2.06-.24,3.56Z"/>
      <path class="cls-2" d="M678.46,1083.35c-20.29,0-36.73,16.45-36.73,36.74s16.44,36.74,36.73,36.74,36.74-16.46,36.74-36.74-16.44-36.74-36.74-36.74Zm18.05,27.35c-.27,.02-.44-.04-.49-.19-.6-3.51-1.83-6.13-3.69-7.86s-4.31-2.59-7.37-2.59h-3.53c-1.85,0-3.15,.33-3.88,.98-.72,.66-1.09,1.73-1.09,3.24v34.45c0,1.5,.2,2.64,.6,3.42s1.21,1.31,2.41,1.62c1.2,.3,3.01,.45,5.41,.45,.1,0,.15,.15,.15,.45s-.05,.45-.15,.45c-1.7,0-3.53-.02-5.49-.08-1.96-.05-4.19-.07-6.7-.07-1.76,0-3.46,.02-5.11,.07-1.66,.05-3.11,.08-4.36,.08-.15,0-.22-.14-.22-.45s.08-.45,.22-.45c1.76,0,3.06-.12,3.91-.37,.85-.25,1.43-.76,1.73-1.5,.3-.76,.45-1.85,.45-3.31v-34.83c0-1.45-.14-2.54-.41-3.27-.28-.72-.82-1.23-1.62-1.5-.8-.27-2.03-.41-3.69-.41-.15,0-.23-.15-.23-.45s.08-.45,.23-.45h32.42c.5,0,.76,.22,.76,.68l.14,11.65c0,.15-.14,.24-.41,.27Z"/>
      <path class="cls-2" d="M482.35,1003.39c-3.11-.86-6.37-1.34-9.76-1.34s-6.46,.44-9.47,1.26c-15.35,4.16-26.63,18.19-26.63,34.85s11.29,30.68,26.63,34.84c3.01,.82,6.19,1.26,9.47,1.26s6.65-.47,9.76-1.34c15.2-4.27,26.33-18.21,26.33-34.77s-11.13-30.51-26.33-34.77Zm13.59,54.1c-1.33,0-2.69-.04-4.08-.13-1.4-.09-2.74-.14-4.03-.14-1.46,0-2.73,.05-3.82,.14-1.08,.09-2.29,.13-3.62,.13-.18,0-.27-.13-.27-.4s.08-.4,.27-.4c1.99,0,3.19-.36,3.59-1.07,.4-.7,.07-2.1-1-4.19l-13.5-27.45-10.84,24.4c-1.15,2.7-1.18,4.76-.1,6.18,1.09,1.42,2.94,2.13,5.56,2.13,.22,0,.33,.13,.33,.4s-.11,.4-.33,.4c-1.33,0-2.55-.04-3.66-.13-1.11-.09-2.51-.14-4.19-.14s-3.03,.05-4.02,.14c-1,.09-2.23,.13-3.69,.13-.18,0-.27-.13-.27-.4s.09-.4,.27-.4c1.2,0,2.23-.24,3.09-.73,.86-.49,1.72-1.39,2.56-2.69,.84-1.3,1.77-3.14,2.79-5.49l14.29-32.25c.08-.13,.29-.2,.6-.2s.49,.07,.53,.2l16.29,32.85c1.01,2.12,1.92,3.8,2.72,5.01,.79,1.22,1.55,2.08,2.26,2.56,.71,.49,1.47,.73,2.26,.73,.18,0,.27,.13,.27,.4s-.08,.4-.27,.4Z"/>
      <path class="cls-2" d="M464.15,962.32c4.35,0,7.88,3.52,7.88,7.87s-3.53,7.87-7.88,7.87-7.87-3.52-7.87-7.87,3.52-7.87,7.87-7.87Z"/>
      <path class="cls-2" d="M519.61,988c6.62,0,11.98,5.36,11.98,11.98s-5.36,11.98-11.98,11.98-11.98-5.36-11.98-11.98,5.36-11.98,11.98-11.98Z"/>
      <path class="cls-2" d="M720.92,1039.7c10.78,0,19.52,8.74,19.52,19.52s-8.74,19.52-19.52,19.52-19.52-8.74-19.52-19.52,8.74-19.52,19.52-19.52Z"/>
      <path class="cls-2" d="M672.99,1023.26c5.01,0,9.07,4.06,9.07,9.07s-4.06,9.07-9.07,9.07-9.07-4.06-9.07-9.07,4.06-9.07,9.07-9.07Z"/>
      <path class="cls-2" d="M695.67,898.3c3.55,0,6.42,2.88,6.42,6.42s-2.87,6.42-6.42,6.42-6.42-2.87-6.42-6.42,2.87-6.42,6.42-6.42Z"/>
      <path class="cls-2" d="M488.12,1094.9c3.54,0,6.42,2.88,6.42,6.42s-2.87,6.42-6.42,6.42-6.42-2.87-6.42-6.42,2.87-6.42,6.42-6.42Z"/>
      <path class="cls-2" d="M563.44,836.67c10.78,0,19.52,8.73,19.52,19.52s-8.73,19.51-19.52,19.51-19.51-8.73-19.51-19.51,8.73-19.52,19.51-19.52Z"/>
    </g>
    <g>
      <g>
        <path class="cls-2" d="M852.22,930.48c2.02-4.61,5.19-6.63,9.8-6.63s7.78,2.02,9.51,6.63l59.06,156.45h37.75l-65.69-172.87c-6.91-18.15-20.17-25.07-40.34-25.07s-33.71,6.92-40.91,25.07l-68.28,172.87h37.45l21.45-54.44h70.66l-13.16-34h-44.1l26.8-68.02Z"/>
        <path class="cls-2" d="M1049.87,892.44c-43.22,0-60.5,23.62-60.5,55.9,0,27.08,12.1,56.18,63.96,56.18h45.24c23.91,0,30.54,11.52,30.54,24.2,0,14.12-8.36,24.2-26.8,24.2h-109.48v34h108.33c44.37,0,61.94-24.2,61.94-57.05,0-27.95-12.39-57.33-65.4-57.33h-45.52c-22.76,0-28.81-11.24-28.81-23.05,0-13.54,7.78-23.05,25.36-23.05h99.69v-34h-98.54Z"/>
        <path class="cls-2" d="M1196.77,892.44v34h106.6c18.73,0,27.08,11.82,27.08,25.65s-7.78,27.08-27.08,27.08h-75.78c-21.32,0-30.54,8.93-30.54,30.83v76.93h34v-70.3c0-3.46,1.73-4.9,4.9-4.9h50.71l44.37,75.2h37.74l-45.24-77.79c29.68-8.36,41.2-34.29,41.2-58.49,0-31.12-18.73-58.2-62.52-58.2h-105.45Z"/>
        <path class="cls-2" d="M1401.31,892.44v34h101.13c18.44,0,26.79,11.82,26.79,25.93s-7.78,26.8-27.08,26.8h-70.01c-21.32,0-30.54,8.93-30.54,30.83v76.93h34v-70.3c0-3.46,1.73-4.9,4.9-4.9h60.5c45.52,0,62.52-31.69,62.52-61.08,0-31.12-18.73-58.2-62.52-58.2h-99.69Z"/>
      </g>
      <path class="cls-2" d="M1478.85,1128.01v-2.84c1.03,0,1.81-.33,2.35-1,.54-.67,.8-1.63,.8-2.89v-7.33c0-1.26-.27-2.22-.8-2.89-.54-.67-1.31-1-2.35-1v-2.83c1.91,0,3.41,.59,4.5,1.79,1.09,1.19,1.63,2.84,1.63,4.94v7.33c0,2.1-.54,3.74-1.63,4.94-1.09,1.2-2.58,1.79-4.5,1.79h0Zm18.51-.06c-1.83,0-3.28-.54-4.34-1.63-1.06-1.09-1.59-2.63-1.59-4.64v-8.16c0-2,.52-3.55,1.56-4.63,1.04-1.08,2.48-1.62,4.31-1.62s3.2,.53,4.21,1.58c1.01,1.05,1.56,2.56,1.63,4.53h-2.87c-.06-1.15-.33-1.99-.83-2.52-.49-.54-1.21-.8-2.14-.8-1.95,0-2.92,1.17-2.92,3.5v8.13c0,1.18,.26,2.06,.79,2.64,.53,.57,1.27,.86,2.22,.86s1.73-.28,2.26-.83c.54-.55,.8-1.4,.8-2.52v-2.52h-3.18v-2.58h6.01v5.1c-.02,1.95-.56,3.46-1.62,4.52-1.06,1.07-2.5,1.6-4.31,1.6h0Zm12.5-20.36h2.89v20.05h-2.89v-20.05h0Zm15.07,20.42c-1.79,0-3.22-.53-4.27-1.57-1.05-1.05-1.59-2.48-1.61-4.3h2.95c.02,1.01,.28,1.77,.78,2.29,.51,.52,1.22,.77,2.14,.77s1.65-.25,2.14-.75c.49-.5,.73-1.16,.73-2s-.3-1.49-.89-2.05c-.59-.56-1.49-1.2-2.69-1.91-1.05-.65-1.89-1.22-2.52-1.72-.63-.49-1.17-1.12-1.62-1.86-.45-.75-.68-1.62-.68-2.64,0-.95,.23-1.82,.68-2.59,.45-.77,1.09-1.38,1.92-1.82,.83-.44,1.8-.66,2.91-.66,1.69,0,3.04,.51,4.03,1.52,.99,1.01,1.51,2.38,1.55,4.1h-2.95c-.02-.94-.26-1.64-.72-2.12-.46-.48-1.09-.72-1.89-.72s-1.43,.21-1.89,.63c-.46,.42-.69,.99-.69,1.72,0,.55,.15,1.04,.46,1.46,.3,.42,.68,.79,1.13,1.11,.45,.31,1.08,.72,1.91,1.22,1.07,.63,1.93,1.19,2.58,1.69,.65,.5,1.2,1.13,1.66,1.91s.69,1.69,.69,2.76c0,1.01-.23,1.94-.69,2.78-.46,.84-1.13,1.51-2.02,2-.89,.5-1.94,.75-3.14,.75h0Zm22.06-17.67h-4.18v17.3h-2.95v-17.3h-4.15v-2.75h11.29v2.75h0Zm10.66,17.67c-1.8,0-3.22-.53-4.27-1.57-1.05-1.05-1.59-2.48-1.61-4.3h2.95c.02,1.01,.28,1.77,.79,2.29,.51,.52,1.22,.77,2.13,.77s1.65-.25,2.14-.75c.49-.5,.73-1.16,.73-2s-.3-1.49-.89-2.05c-.59-.56-1.49-1.2-2.69-1.91-1.05-.65-1.89-1.22-2.52-1.72-.63-.49-1.17-1.12-1.62-1.86-.45-.75-.67-1.62-.67-2.64,0-.95,.22-1.82,.67-2.59,.45-.77,1.09-1.38,1.92-1.82,.83-.44,1.8-.66,2.91-.66,1.7,0,3.04,.51,4.03,1.52,.99,1.01,1.51,2.38,1.55,4.1h-2.95c-.02-.94-.26-1.64-.72-2.12-.46-.48-1.09-.72-1.89-.72s-1.43,.21-1.89,.63c-.46,.42-.69,.99-.69,1.72,0,.55,.15,1.04,.46,1.46,.3,.42,.68,.79,1.13,1.11,.45,.31,1.08,.72,1.91,1.22,1.07,.63,1.93,1.19,2.58,1.69,.65,.5,1.2,1.13,1.66,1.91,.46,.77,.69,1.69,.69,2.76,0,1.01-.23,1.94-.69,2.78-.46,.84-1.13,1.51-2.02,2-.89,.5-1.93,.75-3.14,.75Zm-78.8-20.79v2.83h0c-1.03,0-1.81,.34-2.35,1-.54,.67-.8,1.63-.8,2.89v7.33c0,1.26,.27,2.22,.8,2.89,.53,.67,1.32,1,2.35,1h0v2.84h0c-1.91,0-3.41-.59-4.49-1.79-1.09-1.19-1.63-2.84-1.63-4.94v-7.33c0-2.1,.54-3.74,1.63-4.94,1.09-1.2,2.59-1.79,4.49-1.79h0Zm-34.04,20.79v-2.84c1.03,0,1.81-.33,2.35-1,.54-.67,.8-1.63,.8-2.89v-7.33c0-1.26-.27-2.22-.8-2.89-.53-.67-1.31-1-2.35-1v-2.83c1.91,0,3.41,.59,4.5,1.79,1.09,1.19,1.63,2.84,1.63,4.94v7.33c0,2.1-.54,3.74-1.63,4.94-1.09,1.2-2.58,1.79-4.5,1.79h0Zm22.69-3.12v2.75h-9.54v-20.05h2.89v17.3h6.64Zm-22.69-17.67v2.83h0c-1.03,0-1.81,.34-2.35,1-.54,.67-.8,1.63-.8,2.89v7.33c0,1.26,.27,2.22,.8,2.89,.53,.67,1.32,1,2.35,1h0v2.84h0c-1.91,0-3.41-.59-4.49-1.79-1.09-1.19-1.63-2.84-1.63-4.94v-7.33c0-2.1,.54-3.74,1.63-4.94,1.09-1.2,2.58-1.79,4.49-1.79h0Zm-51.64,16.38v-2.69h2.03l-1.26-5.39c-.28-1.33-.53-2.77-.74-4.3h-.03v-3.64h1.54l5.04,20.05h-3.01l-.95-4.04h-2.63Zm21.12-13.26h-4.18v17.3h-2.95v-17.3h-4.15v-2.75h11.29v2.75h0Zm17.36-2.75v20.05h-2.89v-8.79h-5.67v8.79h-2.89v-20.05h2.89v8.53h5.67v-8.53h2.89Zm-38.48,0v3.64h-.06c-.25,1.82-.5,3.25-.75,4.3l-1.23,5.39h2.03v2.69h-2.66l-.92,4.04h-3.04l5.04-20.05h1.58Zm-15.82,12.99v-2.76c.87-.07,1.54-.38,2-.91,.54-.62,.8-1.57,.8-2.85,0-2.31-.93-3.55-2.8-3.71v-2.76c1.77,.07,3.16,.64,4.15,1.7,1.07,1.14,1.6,2.72,1.6,4.77s-.54,3.71-1.6,4.84c-1,1.05-2.38,1.61-4.15,1.68Zm0-12.99v2.76l-.43-.02h-2.38v7.51h2.38l.43-.02v2.76h-.4s-2.41,0-2.41,0v7.05h-2.89v-20.05h5.7Zm-100.42,16.01v-2.69h2.03l-1.26-5.39c-.29-1.33-.54-2.77-.75-4.3h-.03v-3.64h1.54l5.04,20.05h-3.01l-.95-4.04h-2.63Zm16.59-4.73l-1.32,1.98v6.79h-2.86v-20.05h2.86v8.71l1.32-2.35,4.01-6.36h3.38l-5.73,8.74,6.56,11.31h-3.32l-4.9-8.77h0Zm13.7-11.28h2.89v20.05h-2.89v-20.05h0Zm10.46,0h2.89l4.61,10.22c.34,.76,.95,2.23,1.83,4.41l.09-.06c-.11-.97-.21-2.12-.28-3.44-.08-1.32-.12-2.43-.12-3.32v-7.82h2.86v20.05h-2.89l-4.47-9.82c-.82-2.04-1.46-3.67-1.92-4.87l-.09,.06c.09,.99,.18,2.15,.25,3.48,.06,1.33,.1,2.47,.1,3.42v7.73h-2.86v-20.05h0Zm24.84,20.36c-1.83,0-3.28-.54-4.34-1.63-1.06-1.09-1.59-2.63-1.59-4.64v-8.16c0-2,.52-3.55,1.56-4.63,1.04-1.08,2.48-1.62,4.31-1.62s3.2,.53,4.21,1.58c1.01,1.05,1.56,2.56,1.63,4.53h-2.86c-.06-1.15-.33-1.99-.83-2.52-.49-.54-1.21-.8-2.14-.8-1.95,0-2.93,1.17-2.93,3.5v8.13c0,1.18,.26,2.06,.79,2.64,.53,.57,1.26,.86,2.22,.86s1.73-.28,2.26-.83,.8-1.4,.8-2.52v-2.52h-3.18v-2.58h6.02v5.1c-.02,1.95-.56,3.46-1.62,4.52-1.06,1.07-2.5,1.6-4.31,1.6Zm-65.59-20.36v3.64h-.06c-.25,1.82-.5,3.25-.75,4.3l-1.23,5.39h2.04v2.69h-2.67l-.92,4.04h-3.04l5.04-20.05h1.58Zm-33.42,12.99v-2.76c.88-.07,1.54-.38,2.01-.91,.54-.62,.8-1.57,.8-2.85,0-2.31-.93-3.55-2.81-3.71v-2.76c1.77,.07,3.16,.64,4.15,1.7,1.07,1.14,1.61,2.72,1.61,4.77s-.54,3.71-1.61,4.84c-.99,1.05-2.38,1.61-4.15,1.68h0Zm21.92,4.33v2.72h-10.11v-20.05h9.82v2.72h-6.93v5.81h6.39v2.66h-6.39v6.13h7.22Zm-21.92-17.32v2.76l-.43-.02h-2.38v7.51h2.38l.43-.02v2.76h-.4s-2.41,0-2.41,0v7.05h-2.89v-20.05h5.7Zm-67.02,16.01v-2.69h2.03l-1.26-5.39c-.28-1.33-.53-2.77-.74-4.3h-.03v-3.64h1.54l5.04,20.05h-3.01l-.95-4.04h-2.63Zm12.41-16.01h2.89l4.61,10.22c.34,.76,.95,2.23,1.83,4.41l.09-.06c-.12-.97-.21-2.12-.29-3.44-.08-1.32-.12-2.43-.12-3.32v-7.82h2.86v20.05h-2.89l-4.47-9.82c-.82-2.04-1.46-3.67-1.92-4.87l-.09,.06c.1,.99,.18,2.15,.25,3.48,.07,1.33,.1,2.47,.1,3.42v7.73h-2.87v-20.05h0Zm18.57,11.45h7.01v2.46h-7.01v-2.46h0Zm18.31,8.97c-1.79,0-3.22-.53-4.27-1.57-1.05-1.05-1.59-2.48-1.6-4.3h2.95c.02,1.01,.28,1.77,.79,2.29,.51,.52,1.22,.77,2.14,.77s1.65-.25,2.13-.75c.49-.5,.73-1.16,.73-2s-.3-1.49-.89-2.05c-.59-.56-1.49-1.2-2.69-1.91-1.05-.65-1.89-1.22-2.52-1.72-.63-.49-1.17-1.12-1.62-1.86-.45-.75-.67-1.62-.67-2.64,0-.95,.22-1.82,.67-2.59,.45-.77,1.09-1.38,1.92-1.82,.83-.44,1.79-.66,2.9-.66,1.7,0,3.04,.51,4.04,1.52,.99,1.01,1.51,2.38,1.55,4.1h-2.95c-.02-.94-.26-1.64-.72-2.12-.46-.48-1.09-.72-1.89-.72s-1.43,.21-1.89,.63c-.46,.42-.69,.99-.69,1.72,0,.55,.15,1.04,.46,1.46,.3,.42,.68,.79,1.13,1.11,.45,.31,1.08,.72,1.9,1.22,1.07,.63,1.93,1.19,2.58,1.69,.65,.5,1.2,1.13,1.66,1.91,.46,.77,.69,1.69,.69,2.76,0,1.01-.23,1.94-.69,2.78-.46,.84-1.13,1.51-2.02,2-.89,.5-1.93,.75-3.14,.75Zm-49.28-20.42v3.64h-.06c-.25,1.82-.5,3.25-.75,4.3l-1.23,5.39h2.03v2.69h-2.66l-.92,4.04h-3.04l5.04-20.05h1.58Zm-79.98,14.33v-4.32c.8-.08,1.42-.39,1.87-.92,.53-.63,.79-1.55,.79-2.75s-.26-2.08-.78-2.68c-.44-.52-1.07-.81-1.89-.88v-2.76c1.73,.07,3.08,.62,4.06,1.64,1.05,1.1,1.58,2.64,1.58,4.63,0,1.55-.32,2.84-.95,3.9-.63,1.05-1.52,1.79-2.66,2.2l4.35,7.68h-3.21l-3.17-5.72h0Zm17.99,6.01c-1.8,0-3.22-.56-4.28-1.67-1.06-1.12-1.59-2.69-1.59-4.71v-13.95h2.95v13.95c0,1.18,.26,2.08,.77,2.68,.52,.6,1.23,.9,2.15,.9s1.66-.3,2.17-.9c.52-.6,.78-1.49,.78-2.68v-13.95h2.92v13.95c0,2.02-.53,3.59-1.58,4.71-1.05,1.11-2.48,1.67-4.3,1.67h0Zm17.76,.09c-1.79,0-3.22-.53-4.27-1.57-1.05-1.05-1.59-2.48-1.6-4.3h2.95c.02,1.01,.28,1.77,.79,2.29,.51,.52,1.22,.77,2.13,.77s1.65-.25,2.14-.75c.48-.5,.73-1.16,.73-2s-.3-1.49-.89-2.05c-.59-.56-1.49-1.2-2.69-1.91-1.05-.65-1.89-1.22-2.52-1.72-.63-.49-1.17-1.12-1.62-1.86-.45-.75-.67-1.62-.67-2.64,0-.95,.22-1.82,.67-2.59,.45-.77,1.09-1.38,1.92-1.82,.83-.44,1.8-.66,2.91-.66,1.7,0,3.04,.51,4.04,1.52,.99,1.01,1.51,2.38,1.55,4.1h-2.95c-.02-.94-.26-1.64-.72-2.12-.46-.48-1.09-.72-1.89-.72s-1.43,.21-1.89,.63c-.46,.42-.69,.99-.69,1.72,0,.55,.15,1.04,.46,1.46,.3,.42,.68,.79,1.13,1.11,.45,.31,1.09,.72,1.91,1.22,1.07,.63,1.93,1.19,2.58,1.69,.65,.5,1.2,1.13,1.66,1.91,.46,.77,.69,1.69,.69,2.76,0,1.01-.23,1.94-.69,2.78-.46,.84-1.13,1.51-2.02,2-.89,.5-1.93,.75-3.14,.75h0Zm16.91,0c-1.8,0-3.22-.53-4.27-1.57-1.05-1.05-1.59-2.48-1.6-4.3h2.95c.02,1.01,.28,1.77,.79,2.29,.51,.52,1.22,.77,2.14,.77s1.64-.25,2.13-.75c.48-.5,.73-1.16,.73-2s-.3-1.49-.89-2.05c-.59-.56-1.49-1.2-2.69-1.91-1.05-.65-1.89-1.22-2.52-1.72-.63-.49-1.17-1.12-1.62-1.86-.45-.75-.67-1.62-.67-2.64,0-.95,.22-1.82,.67-2.59,.45-.77,1.09-1.38,1.92-1.82,.83-.44,1.8-.66,2.91-.66,1.7,0,3.04,.51,4.04,1.52,.99,1.01,1.51,2.38,1.55,4.1h-2.95c-.02-.94-.26-1.64-.72-2.12-.46-.48-1.09-.72-1.89-.72s-1.43,.21-1.89,.63c-.46,.42-.68,.99-.68,1.72,0,.55,.15,1.04,.46,1.46,.3,.42,.68,.79,1.13,1.11,.45,.31,1.09,.72,1.91,1.22,1.07,.63,1.93,1.19,2.58,1.69,.65,.5,1.2,1.13,1.66,1.91,.46,.77,.69,1.69,.69,2.76,0,1.01-.23,1.94-.69,2.78-.46,.84-1.13,1.51-2.02,2-.89,.5-1.93,.75-3.14,.75h0Zm12.03-20.42h2.89v20.05h-2.89v-20.05Zm-64.7,0v2.76l-.41-.02h-2.26v7.27h2.23l.43-.02v4.32l-.86-1.55h-1.8v7.27h-2.89v-20.05h5.56Zm-50.88,20.42v-2.84c1.03,0,1.81-.33,2.35-1,.54-.67,.8-1.63,.8-2.89v-7.33c0-1.26-.27-2.22-.8-2.89-.53-.67-1.31-1-2.35-1v-2.83c1.91,0,3.41,.59,4.5,1.79,1.09,1.19,1.63,2.84,1.63,4.94v7.33c0,2.1-.54,3.74-1.63,4.94-1.09,1.2-2.58,1.79-4.5,1.79h0Zm16.05-17.7v5.98h6.04v2.64h-6.04v8.71h-2.89v-20.05h9.45v2.72h-6.56Zm-16.05-3.09v2.83h0c-1.03,0-1.81,.34-2.35,1-.54,.67-.8,1.63-.8,2.89v7.33c0,1.26,.27,2.22,.8,2.89,.53,.67,1.32,1,2.35,1h0v2.84h0c-1.91,0-3.41-.59-4.49-1.79-1.09-1.19-1.63-2.84-1.63-4.94v-7.33c0-2.1,.54-3.74,1.63-4.94,1.09-1.2,2.59-1.79,4.49-1.79h0Zm-112.23,20.79v-2.84c1.03,0,1.81-.33,2.35-1,.54-.67,.8-1.63,.8-2.89v-7.33c0-1.26-.27-2.22-.8-2.89-.54-.67-1.31-1-2.35-1v-2.83c1.91,0,3.41,.59,4.49,1.79,1.09,1.19,1.63,2.84,1.63,4.94v7.33c0,2.1-.54,3.74-1.63,4.94-1.09,1.2-2.58,1.79-4.49,1.79h0Zm18.39-.03c-1.8,0-3.21-.54-4.25-1.63-1.04-1.09-1.56-2.62-1.56-4.61v-8.25c0-2,.51-3.55,1.55-4.64,1.03-1.09,2.44-1.63,4.24-1.63s3.26,.53,4.3,1.59c1.03,1.06,1.59,2.58,1.66,4.57h-2.86c-.08-1.16-.37-2.03-.89-2.58-.52-.55-1.26-.83-2.24-.83-.88,0-1.56,.3-2.06,.89-.5,.59-.75,1.47-.75,2.63v8.25c0,1.16,.25,2.04,.76,2.62,.5,.58,1.21,.87,2.1,.87,.97,0,1.73-.28,2.25-.83,.53-.55,.83-1.4,.93-2.55h2.86c-.09,1.97-.67,3.48-1.7,4.54-1.04,1.06-2.49,1.59-4.34,1.59h0Zm12.44-20.39h2.89v20.05h-2.89v-20.05h0Zm20.57,17.33v2.72h-10.11v-20.05h9.82v2.72h-6.93v5.81h6.39v2.66h-6.39v6.13h7.22Zm16.45-14.58h-4.18v17.3h-2.95v-17.3h-4.15v-2.75h11.29v2.75h0Zm9,10.71l-4.87-13.46h3.01l2.26,6.67c.48,1.43,.81,2.48,1,3.15h.06l1.03-3.21,2.23-6.61h3.03l-4.87,13.46v6.59h-2.89v-6.59Zm-76.85-13.83v2.83h0c-1.03,0-1.81,.34-2.35,1-.54,.67-.8,1.63-.8,2.89v7.33c0,1.26,.27,2.22,.8,2.89,.53,.67,1.32,1,2.35,1h0v2.84h0c-1.91,0-3.41-.59-4.49-1.79-1.09-1.19-1.63-2.84-1.63-4.94v-7.33c0-2.1,.54-3.74,1.63-4.94,1.09-1.2,2.59-1.79,4.49-1.79h0Zm-70.76,16.38v-2.69h2.03l-1.26-5.39c-.28-1.33-.53-2.77-.74-4.3h-.03v-3.64h1.54l5.04,20.05h-3.01l-.95-4.04h-2.63Zm12.41-16.01h2.89l4.61,10.22c.34,.76,.95,2.23,1.83,4.41l.09-.06c-.11-.97-.21-2.12-.29-3.44-.08-1.32-.11-2.43-.11-3.32v-7.82h2.86v20.05h-2.89l-4.47-9.82c-.82-2.04-1.46-3.67-1.92-4.87l-.09,.06c.1,.99,.18,2.15,.25,3.48,.07,1.33,.1,2.47,.1,3.42v7.73h-2.87v-20.05h0Zm40.5,20.42c-1.8,0-3.22-.53-4.27-1.57-1.05-1.05-1.59-2.48-1.6-4.3h2.95c.02,1.01,.28,1.77,.78,2.29,.51,.52,1.22,.77,2.14,.77s1.65-.25,2.14-.75c.49-.5,.73-1.16,.73-2s-.3-1.49-.89-2.05c-.59-.56-1.49-1.2-2.69-1.91-1.05-.65-1.89-1.22-2.52-1.72-.63-.49-1.17-1.12-1.62-1.86-.45-.75-.67-1.62-.67-2.64,0-.95,.23-1.82,.67-2.59,.45-.77,1.09-1.38,1.92-1.82,.83-.44,1.8-.66,2.91-.66,1.69,0,3.04,.51,4.03,1.52,.99,1.01,1.51,2.38,1.55,4.1h-2.95c-.02-.94-.26-1.64-.72-2.12-.46-.48-1.09-.72-1.89-.72s-1.43,.21-1.89,.63c-.46,.42-.69,.99-.69,1.72,0,.55,.15,1.04,.46,1.46,.3,.42,.68,.79,1.13,1.11,.45,.31,1.08,.72,1.91,1.22,1.07,.63,1.93,1.19,2.58,1.69,.65,.5,1.2,1.13,1.66,1.91,.46,.77,.69,1.69,.69,2.76,0,1.01-.23,1.94-.69,2.78-.46,.84-1.13,1.51-2.02,2-.89,.5-1.93,.75-3.14,.75Zm-52.91-20.42v3.64h-.06c-.25,1.82-.5,3.25-.75,4.3l-1.23,5.39h2.03v2.69h-2.67l-.91,4.04h-3.04l5.04-20.05h1.58Zm-44.85,14.32v-4.32c.8-.08,1.43-.39,1.88-.92,.52-.63,.79-1.55,.79-2.75s-.26-2.08-.77-2.68c-.44-.52-1.07-.81-1.89-.88v-2.76c1.73,.07,3.09,.62,4.06,1.64,1.05,1.1,1.58,2.64,1.58,4.63,0,1.55-.32,2.84-.95,3.9-.63,1.05-1.52,1.79-2.66,2.2l4.35,7.68h-3.21l-3.18-5.72h0Zm12.47-14.32h2.89v20.05h-2.89v-20.05h0Zm15.7,20.39c-1.79,0-3.21-.54-4.25-1.63-1.04-1.09-1.56-2.62-1.56-4.61v-8.25c0-2,.51-3.55,1.55-4.64,1.03-1.09,2.44-1.63,4.24-1.63s3.27,.53,4.3,1.59c1.03,1.06,1.59,2.58,1.66,4.57h-2.86c-.07-1.16-.37-2.03-.89-2.58-.51-.55-1.26-.83-2.23-.83-.88,0-1.57,.3-2.06,.89-.5,.59-.75,1.47-.75,2.63v8.25c0,1.16,.25,2.04,.76,2.62,.51,.58,1.21,.87,2.1,.87,.98,0,1.72-.28,2.25-.83,.52-.55,.83-1.4,.93-2.55h2.86c-.09,1.97-.66,3.48-1.7,4.54-1.04,1.06-2.49,1.59-4.34,1.59Zm-83.58-4.38h-2.63v-2.69h2.03l-1.26-5.39c-.28-1.33-.53-2.77-.74-4.3h-.03v-3.64h1.54l5.04,20.05h-3.01l-.95-4.04h0Zm55.42-16v2.76l-.4-.02h-2.26v7.27h2.24l.43-.02v4.32l-.86-1.55h-1.8v7.27h-2.89v-20.05h5.56Zm-29.95,0v20.05h-2.84v-7.82c.08-2.81,.15-4.96,.23-6.47l-.12-.06c-.38,1.07-1.03,2.83-1.95,5.27l-1.74,4.55h-2.87l-1.75-4.55c-.92-2.44-1.57-4.2-1.95-5.27l-.11,.06c.11,2.79,.19,4.95,.23,6.47v7.82h-2.84v-20.05h2.95l3.38,8.13c.44,1.09,.93,2.41,1.46,3.98h.11c.54-1.57,1.02-2.89,1.46-3.98l3.38-8.13h2.95Zm17.71,17.33v2.72h-10.11v-20.05h9.82v2.72h-6.93v5.81h6.39v2.66h-6.39v6.13h7.22Zm-45.81-1.32h-2.67l-.91,4.04h-3.04l5.04-20.05h1.58v3.64h-.06c-.25,1.82-.5,3.25-.75,4.3l-1.23,5.39h2.04v2.69Z"/>
    </g>
  </g>
</svg>